<mxfile host="app.diagrams.net" modified="2022-08-18T23:01:37.414Z" agent="5.0 (Windows NT 10.0; Win64; x64) AppleWebKit/537.36 (KHTML, like Gecko) Chrome/91.0.4472.164 Safari/537.36 Edg/91.0.864.71" etag="BWzKR0dmWtTA2oa1exbt" version="20.2.5" type="github">
  <diagram id="C5RBs43oDa-KdzZeNtuy" name="Page-1">
    <mxGraphModel dx="2044" dy="1763" grid="1" gridSize="10" guides="1" tooltips="1" connect="1" arrows="1" fold="1" page="1" pageScale="1" pageWidth="1169" pageHeight="827" background="#DAD2D8" math="0" shadow="1">
      <root>
        <mxCell id="WIyWlLk6GJQsqaUBKTNV-0" />
        <mxCell id="WIyWlLk6GJQsqaUBKTNV-1" parent="WIyWlLk6GJQsqaUBKTNV-0" />
        <mxCell id="qAUXwOdHfvN9G97VkupB-17" value="" style="edgeStyle=orthogonalEdgeStyle;rounded=0;orthogonalLoop=1;jettySize=auto;html=1;labelBackgroundColor=#DAD2D8;strokeColor=#A8201A;fontColor=#143642;" edge="1" parent="WIyWlLk6GJQsqaUBKTNV-1" source="qAUXwOdHfvN9G97VkupB-0" target="qAUXwOdHfvN9G97VkupB-10">
          <mxGeometry relative="1" as="geometry" />
        </mxCell>
        <mxCell id="qAUXwOdHfvN9G97VkupB-0" value="CLIENTE" style="rounded=0;whiteSpace=wrap;html=1;fillColor=#FAE5C7;strokeColor=#0F8B8D;fontColor=#143642;" vertex="1" parent="WIyWlLk6GJQsqaUBKTNV-1">
          <mxGeometry x="570" y="-30" width="120" height="60" as="geometry" />
        </mxCell>
        <mxCell id="qAUXwOdHfvN9G97VkupB-1" value="IMOVEL" style="rounded=0;whiteSpace=wrap;html=1;fillColor=#FAE5C7;strokeColor=#0F8B8D;fontColor=#143642;" vertex="1" parent="WIyWlLk6GJQsqaUBKTNV-1">
          <mxGeometry x="845" y="-30" width="120" height="60" as="geometry" />
        </mxCell>
        <mxCell id="qAUXwOdHfvN9G97VkupB-2" value="FUNCIONARIO" style="rounded=0;whiteSpace=wrap;html=1;fillColor=#FAE5C7;strokeColor=#0F8B8D;fontColor=#143642;" vertex="1" parent="WIyWlLk6GJQsqaUBKTNV-1">
          <mxGeometry x="1015" y="160" width="120" height="60" as="geometry" />
        </mxCell>
        <mxCell id="qAUXwOdHfvN9G97VkupB-3" value="ENDEREÃ‡OS" style="rounded=0;whiteSpace=wrap;html=1;fillColor=#FAE5C7;strokeColor=#0F8B8D;fontColor=#143642;" vertex="1" parent="WIyWlLk6GJQsqaUBKTNV-1">
          <mxGeometry x="1015" y="-200" width="120" height="60" as="geometry" />
        </mxCell>
        <mxCell id="qAUXwOdHfvN9G97VkupB-4" value="DOCUMENTOS" style="rounded=0;whiteSpace=wrap;html=1;fillColor=#FAE5C7;strokeColor=#0F8B8D;fontColor=#143642;" vertex="1" parent="WIyWlLk6GJQsqaUBKTNV-1">
          <mxGeometry x="770" y="300" width="120" height="60" as="geometry" />
        </mxCell>
        <mxCell id="qAUXwOdHfvN9G97VkupB-11" value="ESTADO-CIVIL" style="ellipse;whiteSpace=wrap;html=1;fillColor=#FAE5C7;strokeColor=#0F8B8D;fontColor=#143642;rounded=0;" vertex="1" parent="WIyWlLk6GJQsqaUBKTNV-1">
          <mxGeometry x="500" y="130" width="80" height="60" as="geometry" />
        </mxCell>
        <mxCell id="qAUXwOdHfvN9G97VkupB-12" value="" style="endArrow=classic;html=1;rounded=0;exitX=1;exitY=0.5;exitDx=0;exitDy=0;labelBackgroundColor=#DAD2D8;strokeColor=#A8201A;fontColor=#143642;" edge="1" parent="WIyWlLk6GJQsqaUBKTNV-1" source="qAUXwOdHfvN9G97VkupB-24" target="qAUXwOdHfvN9G97VkupB-4">
          <mxGeometry width="50" height="50" relative="1" as="geometry">
            <mxPoint x="650" y="260" as="sourcePoint" />
            <mxPoint x="669.9999999999987" y="350" as="targetPoint" />
          </mxGeometry>
        </mxCell>
        <mxCell id="qAUXwOdHfvN9G97VkupB-13" value="" style="endArrow=classic;html=1;rounded=0;labelBackgroundColor=#DAD2D8;strokeColor=#A8201A;fontColor=#143642;" edge="1" parent="WIyWlLk6GJQsqaUBKTNV-1" source="qAUXwOdHfvN9G97VkupB-0" target="qAUXwOdHfvN9G97VkupB-9">
          <mxGeometry width="50" height="50" relative="1" as="geometry">
            <mxPoint x="790" y="170" as="sourcePoint" />
            <mxPoint x="840" y="120" as="targetPoint" />
          </mxGeometry>
        </mxCell>
        <mxCell id="qAUXwOdHfvN9G97VkupB-14" value="" style="endArrow=classic;html=1;rounded=0;labelBackgroundColor=#DAD2D8;strokeColor=#A8201A;fontColor=#143642;" edge="1" parent="WIyWlLk6GJQsqaUBKTNV-1" source="qAUXwOdHfvN9G97VkupB-0" target="qAUXwOdHfvN9G97VkupB-7">
          <mxGeometry width="50" height="50" relative="1" as="geometry">
            <mxPoint x="670" y="40" as="sourcePoint" />
            <mxPoint x="706" y="76" as="targetPoint" />
          </mxGeometry>
        </mxCell>
        <mxCell id="qAUXwOdHfvN9G97VkupB-15" value="" style="endArrow=classic;html=1;rounded=0;labelBackgroundColor=#DAD2D8;strokeColor=#A8201A;fontColor=#143642;" edge="1" parent="WIyWlLk6GJQsqaUBKTNV-1" source="qAUXwOdHfvN9G97VkupB-0" target="qAUXwOdHfvN9G97VkupB-8">
          <mxGeometry width="50" height="50" relative="1" as="geometry">
            <mxPoint x="680" y="50" as="sourcePoint" />
            <mxPoint x="716" y="86" as="targetPoint" />
          </mxGeometry>
        </mxCell>
        <mxCell id="qAUXwOdHfvN9G97VkupB-16" value="" style="endArrow=classic;html=1;rounded=0;entryX=0.5;entryY=0;entryDx=0;entryDy=0;labelBackgroundColor=#DAD2D8;strokeColor=#A8201A;fontColor=#143642;" edge="1" parent="WIyWlLk6GJQsqaUBKTNV-1" source="qAUXwOdHfvN9G97VkupB-0" target="qAUXwOdHfvN9G97VkupB-24">
          <mxGeometry width="50" height="50" relative="1" as="geometry">
            <mxPoint x="790" y="170" as="sourcePoint" />
            <mxPoint x="630" y="320" as="targetPoint" />
          </mxGeometry>
        </mxCell>
        <mxCell id="qAUXwOdHfvN9G97VkupB-10" value="RENDA&lt;br&gt;" style="ellipse;whiteSpace=wrap;html=1;fillColor=#FAE5C7;strokeColor=#0F8B8D;fontColor=#143642;rounded=0;" vertex="1" parent="WIyWlLk6GJQsqaUBKTNV-1">
          <mxGeometry x="590" y="130" width="80" height="60" as="geometry" />
        </mxCell>
        <mxCell id="qAUXwOdHfvN9G97VkupB-7" value="SEXO" style="ellipse;whiteSpace=wrap;html=1;fillColor=#FAE5C7;strokeColor=#0F8B8D;fontColor=#143642;rounded=0;" vertex="1" parent="WIyWlLk6GJQsqaUBKTNV-1">
          <mxGeometry x="590" y="60" width="80" height="60" as="geometry" />
        </mxCell>
        <mxCell id="qAUXwOdHfvN9G97VkupB-20" value="" style="endArrow=classic;html=1;rounded=0;labelBackgroundColor=#DAD2D8;strokeColor=#A8201A;fontColor=#143642;" edge="1" parent="WIyWlLk6GJQsqaUBKTNV-1" source="qAUXwOdHfvN9G97VkupB-0" target="qAUXwOdHfvN9G97VkupB-19">
          <mxGeometry width="50" height="50" relative="1" as="geometry">
            <mxPoint x="790" y="240" as="sourcePoint" />
            <mxPoint x="840" y="190" as="targetPoint" />
          </mxGeometry>
        </mxCell>
        <mxCell id="qAUXwOdHfvN9G97VkupB-19" value="NASCIMENTO" style="ellipse;whiteSpace=wrap;html=1;fillColor=#FAE5C7;strokeColor=#0F8B8D;fontColor=#143642;rounded=0;" vertex="1" parent="WIyWlLk6GJQsqaUBKTNV-1">
          <mxGeometry x="680" y="130" width="80" height="60" as="geometry" />
        </mxCell>
        <mxCell id="qAUXwOdHfvN9G97VkupB-9" value="EMAIL" style="ellipse;whiteSpace=wrap;html=1;shadow=0;fillColor=#FAE5C7;strokeColor=#0F8B8D;fontColor=#143642;rounded=0;" vertex="1" parent="WIyWlLk6GJQsqaUBKTNV-1">
          <mxGeometry x="680" y="60" width="80" height="60" as="geometry" />
        </mxCell>
        <mxCell id="qAUXwOdHfvN9G97VkupB-21" value="" style="endArrow=classic;html=1;rounded=0;labelBackgroundColor=#DAD2D8;strokeColor=#A8201A;fontColor=#143642;" edge="1" parent="WIyWlLk6GJQsqaUBKTNV-1" source="qAUXwOdHfvN9G97VkupB-0" target="qAUXwOdHfvN9G97VkupB-11">
          <mxGeometry width="50" height="50" relative="1" as="geometry">
            <mxPoint x="790" y="240" as="sourcePoint" />
            <mxPoint x="840" y="190" as="targetPoint" />
          </mxGeometry>
        </mxCell>
        <mxCell id="qAUXwOdHfvN9G97VkupB-8" value="NOME" style="ellipse;whiteSpace=wrap;html=1;fillColor=#FAE5C7;strokeColor=#0F8B8D;fontColor=#143642;rounded=0;" vertex="1" parent="WIyWlLk6GJQsqaUBKTNV-1">
          <mxGeometry x="500" y="60" width="80" height="60" as="geometry" />
        </mxCell>
        <mxCell id="qAUXwOdHfvN9G97VkupB-22" value="&lt;u&gt;RG&lt;/u&gt;" style="ellipse;whiteSpace=wrap;html=1;fillColor=#FAE5C7;strokeColor=#0F8B8D;fontColor=#143642;rounded=0;" vertex="1" parent="WIyWlLk6GJQsqaUBKTNV-1">
          <mxGeometry x="790" y="425" width="80" height="60" as="geometry" />
        </mxCell>
        <mxCell id="qAUXwOdHfvN9G97VkupB-23" value="" style="endArrow=classic;html=1;rounded=0;labelBackgroundColor=#DAD2D8;strokeColor=#A8201A;fontColor=#143642;" edge="1" parent="WIyWlLk6GJQsqaUBKTNV-1" source="qAUXwOdHfvN9G97VkupB-4" target="qAUXwOdHfvN9G97VkupB-22">
          <mxGeometry width="50" height="50" relative="1" as="geometry">
            <mxPoint x="750" y="340" as="sourcePoint" />
            <mxPoint x="800" y="290" as="targetPoint" />
          </mxGeometry>
        </mxCell>
        <mxCell id="qAUXwOdHfvN9G97VkupB-24" value="POSSUI" style="rhombus;whiteSpace=wrap;html=1;shadow=0;fillColor=#FAE5C7;strokeColor=#0F8B8D;fontColor=#143642;rounded=0;" vertex="1" parent="WIyWlLk6GJQsqaUBKTNV-1">
          <mxGeometry x="565" y="290" width="130" height="80" as="geometry" />
        </mxCell>
        <mxCell id="qAUXwOdHfvN9G97VkupB-25" value="&lt;u&gt;CPF&lt;/u&gt;" style="ellipse;whiteSpace=wrap;html=1;fillColor=#FAE5C7;strokeColor=#0F8B8D;fontColor=#143642;rounded=0;" vertex="1" parent="WIyWlLk6GJQsqaUBKTNV-1">
          <mxGeometry x="695" y="425" width="80" height="60" as="geometry" />
        </mxCell>
        <mxCell id="qAUXwOdHfvN9G97VkupB-26" value="&lt;u&gt;CNH&lt;/u&gt;" style="ellipse;whiteSpace=wrap;html=1;fillColor=#FAE5C7;strokeColor=#0F8B8D;fontColor=#143642;rounded=0;" vertex="1" parent="WIyWlLk6GJQsqaUBKTNV-1">
          <mxGeometry x="880" y="425" width="80" height="60" as="geometry" />
        </mxCell>
        <mxCell id="qAUXwOdHfvN9G97VkupB-28" value="" style="endArrow=classic;html=1;rounded=0;labelBackgroundColor=#DAD2D8;strokeColor=#A8201A;fontColor=#143642;" edge="1" parent="WIyWlLk6GJQsqaUBKTNV-1" source="qAUXwOdHfvN9G97VkupB-4" target="qAUXwOdHfvN9G97VkupB-25">
          <mxGeometry width="50" height="50" relative="1" as="geometry">
            <mxPoint x="750" y="460" as="sourcePoint" />
            <mxPoint x="800" y="410" as="targetPoint" />
          </mxGeometry>
        </mxCell>
        <mxCell id="qAUXwOdHfvN9G97VkupB-29" value="" style="endArrow=classic;html=1;rounded=0;labelBackgroundColor=#DAD2D8;strokeColor=#A8201A;fontColor=#143642;" edge="1" parent="WIyWlLk6GJQsqaUBKTNV-1" source="qAUXwOdHfvN9G97VkupB-4" target="qAUXwOdHfvN9G97VkupB-26">
          <mxGeometry width="50" height="50" relative="1" as="geometry">
            <mxPoint x="817.1471700308667" y="370" as="sourcePoint" />
            <mxPoint x="764.6765522316814" y="438.8806828782991" as="targetPoint" />
          </mxGeometry>
        </mxCell>
        <mxCell id="qAUXwOdHfvN9G97VkupB-30" value="POSSUI" style="rhombus;whiteSpace=wrap;html=1;shadow=0;fillColor=#FAE5C7;strokeColor=#0F8B8D;fontColor=#143642;rounded=0;" vertex="1" parent="WIyWlLk6GJQsqaUBKTNV-1">
          <mxGeometry x="1010" y="290" width="130" height="80" as="geometry" />
        </mxCell>
        <mxCell id="qAUXwOdHfvN9G97VkupB-31" value="" style="endArrow=classic;html=1;rounded=0;labelBackgroundColor=#DAD2D8;strokeColor=#A8201A;fontColor=#143642;" edge="1" parent="WIyWlLk6GJQsqaUBKTNV-1" source="qAUXwOdHfvN9G97VkupB-30" target="qAUXwOdHfvN9G97VkupB-4">
          <mxGeometry width="50" height="50" relative="1" as="geometry">
            <mxPoint x="840" y="290" as="sourcePoint" />
            <mxPoint x="890" y="240" as="targetPoint" />
          </mxGeometry>
        </mxCell>
        <mxCell id="qAUXwOdHfvN9G97VkupB-32" value="" style="endArrow=classic;html=1;rounded=0;entryX=0.5;entryY=0;entryDx=0;entryDy=0;labelBackgroundColor=#DAD2D8;strokeColor=#A8201A;fontColor=#143642;" edge="1" parent="WIyWlLk6GJQsqaUBKTNV-1" source="qAUXwOdHfvN9G97VkupB-2" target="qAUXwOdHfvN9G97VkupB-30">
          <mxGeometry width="50" height="50" relative="1" as="geometry">
            <mxPoint x="840" y="290" as="sourcePoint" />
            <mxPoint x="890" y="240" as="targetPoint" />
          </mxGeometry>
        </mxCell>
        <mxCell id="qAUXwOdHfvN9G97VkupB-33" value="" style="endArrow=classic;html=1;rounded=0;exitX=1;exitY=0.5;exitDx=0;exitDy=0;labelBackgroundColor=#DAD2D8;strokeColor=#A8201A;fontColor=#143642;" edge="1" parent="WIyWlLk6GJQsqaUBKTNV-1" source="qAUXwOdHfvN9G97VkupB-2" target="qAUXwOdHfvN9G97VkupB-34">
          <mxGeometry width="50" height="50" relative="1" as="geometry">
            <mxPoint x="1030" y="180" as="sourcePoint" />
            <mxPoint x="1210" y="190" as="targetPoint" />
          </mxGeometry>
        </mxCell>
        <mxCell id="qAUXwOdHfvN9G97VkupB-34" value="NOME" style="ellipse;whiteSpace=wrap;html=1;shadow=0;fillColor=#FAE5C7;strokeColor=#0F8B8D;fontColor=#143642;rounded=0;" vertex="1" parent="WIyWlLk6GJQsqaUBKTNV-1">
          <mxGeometry x="1200" y="160" width="90" height="60" as="geometry" />
        </mxCell>
        <mxCell id="qAUXwOdHfvN9G97VkupB-35" value="VENDA" style="ellipse;whiteSpace=wrap;html=1;shadow=0;fillColor=#FAE5C7;strokeColor=#0F8B8D;fontColor=#143642;rounded=0;" vertex="1" parent="WIyWlLk6GJQsqaUBKTNV-1">
          <mxGeometry x="1200" y="90" width="90" height="60" as="geometry" />
        </mxCell>
        <mxCell id="qAUXwOdHfvN9G97VkupB-37" value="RENDA" style="ellipse;whiteSpace=wrap;html=1;shadow=0;fillColor=#FAE5C7;strokeColor=#0F8B8D;fontColor=#143642;rounded=0;" vertex="1" parent="WIyWlLk6GJQsqaUBKTNV-1">
          <mxGeometry x="1200" y="240" width="90" height="60" as="geometry" />
        </mxCell>
        <mxCell id="qAUXwOdHfvN9G97VkupB-38" value="" style="endArrow=classic;html=1;rounded=0;labelBackgroundColor=#DAD2D8;strokeColor=#A8201A;fontColor=#143642;" edge="1" parent="WIyWlLk6GJQsqaUBKTNV-1" source="qAUXwOdHfvN9G97VkupB-2" target="qAUXwOdHfvN9G97VkupB-37">
          <mxGeometry width="50" height="50" relative="1" as="geometry">
            <mxPoint x="1145" y="200" as="sourcePoint" />
            <mxPoint x="1210" y="200" as="targetPoint" />
          </mxGeometry>
        </mxCell>
        <mxCell id="qAUXwOdHfvN9G97VkupB-39" value="" style="endArrow=classic;html=1;rounded=0;exitX=1;exitY=0;exitDx=0;exitDy=0;labelBackgroundColor=#DAD2D8;strokeColor=#A8201A;fontColor=#143642;" edge="1" parent="WIyWlLk6GJQsqaUBKTNV-1" source="qAUXwOdHfvN9G97VkupB-2" target="qAUXwOdHfvN9G97VkupB-35">
          <mxGeometry width="50" height="50" relative="1" as="geometry">
            <mxPoint x="1145" y="228.23529411764707" as="sourcePoint" />
            <mxPoint x="1218.2364461530838" y="262.69950407203953" as="targetPoint" />
          </mxGeometry>
        </mxCell>
        <mxCell id="qAUXwOdHfvN9G97VkupB-40" value="VENDE/COMPRA" style="rhombus;whiteSpace=wrap;html=1;shadow=0;fillColor=#FAE5C7;strokeColor=#0F8B8D;fontColor=#143642;rounded=0;" vertex="1" parent="WIyWlLk6GJQsqaUBKTNV-1">
          <mxGeometry x="1010" y="-30" width="130" height="60" as="geometry" />
        </mxCell>
        <mxCell id="qAUXwOdHfvN9G97VkupB-41" value="" style="endArrow=classic;html=1;rounded=0;entryX=0.5;entryY=1;entryDx=0;entryDy=0;labelBackgroundColor=#DAD2D8;strokeColor=#A8201A;fontColor=#143642;" edge="1" parent="WIyWlLk6GJQsqaUBKTNV-1" source="qAUXwOdHfvN9G97VkupB-2" target="qAUXwOdHfvN9G97VkupB-40">
          <mxGeometry width="50" height="50" relative="1" as="geometry">
            <mxPoint x="920" y="80" as="sourcePoint" />
            <mxPoint x="970" y="30" as="targetPoint" />
          </mxGeometry>
        </mxCell>
        <mxCell id="qAUXwOdHfvN9G97VkupB-42" value="" style="endArrow=classic;html=1;rounded=0;entryX=1;entryY=0.5;entryDx=0;entryDy=0;labelBackgroundColor=#DAD2D8;strokeColor=#A8201A;fontColor=#143642;" edge="1" parent="WIyWlLk6GJQsqaUBKTNV-1" source="qAUXwOdHfvN9G97VkupB-40" target="qAUXwOdHfvN9G97VkupB-1">
          <mxGeometry width="50" height="50" relative="1" as="geometry">
            <mxPoint x="920" y="80" as="sourcePoint" />
            <mxPoint x="970" y="30" as="targetPoint" />
          </mxGeometry>
        </mxCell>
        <mxCell id="qAUXwOdHfvN9G97VkupB-43" value="" style="endArrow=classic;html=1;rounded=0;exitX=0.5;exitY=0;exitDx=0;exitDy=0;entryX=0.5;entryY=1;entryDx=0;entryDy=0;labelBackgroundColor=#DAD2D8;strokeColor=#A8201A;fontColor=#143642;" edge="1" parent="WIyWlLk6GJQsqaUBKTNV-1" source="qAUXwOdHfvN9G97VkupB-1" target="qAUXwOdHfvN9G97VkupB-44">
          <mxGeometry width="50" height="50" relative="1" as="geometry">
            <mxPoint x="920" y="-40" as="sourcePoint" />
            <mxPoint x="900" y="-130" as="targetPoint" />
          </mxGeometry>
        </mxCell>
        <mxCell id="qAUXwOdHfvN9G97VkupB-44" value="POSSUI" style="rhombus;whiteSpace=wrap;html=1;shadow=0;fillColor=#FAE5C7;strokeColor=#0F8B8D;fontColor=#143642;rounded=0;" vertex="1" parent="WIyWlLk6GJQsqaUBKTNV-1">
          <mxGeometry x="840" y="-210" width="130" height="80" as="geometry" />
        </mxCell>
        <mxCell id="qAUXwOdHfvN9G97VkupB-45" value="" style="endArrow=classic;html=1;rounded=0;exitX=1;exitY=0.5;exitDx=0;exitDy=0;labelBackgroundColor=#DAD2D8;strokeColor=#A8201A;fontColor=#143642;" edge="1" parent="WIyWlLk6GJQsqaUBKTNV-1" source="qAUXwOdHfvN9G97VkupB-44" target="qAUXwOdHfvN9G97VkupB-3">
          <mxGeometry width="50" height="50" relative="1" as="geometry">
            <mxPoint x="920" y="-50" as="sourcePoint" />
            <mxPoint x="970" y="-100" as="targetPoint" />
          </mxGeometry>
        </mxCell>
        <mxCell id="qAUXwOdHfvN9G97VkupB-47" value="VALOR&lt;br&gt;VENDA" style="ellipse;whiteSpace=wrap;html=1;shadow=0;fillColor=#FAE5C7;strokeColor=#0F8B8D;fontColor=#143642;rounded=0;" vertex="1" parent="WIyWlLk6GJQsqaUBKTNV-1">
          <mxGeometry x="960" y="65" width="90" height="60" as="geometry" />
        </mxCell>
        <mxCell id="qAUXwOdHfvN9G97VkupB-49" value="CONTRATO" style="rounded=0;whiteSpace=wrap;html=1;shadow=0;fillColor=#FAE5C7;strokeColor=#0F8B8D;fontColor=#143642;" vertex="1" parent="WIyWlLk6GJQsqaUBKTNV-1">
          <mxGeometry x="655" y="-200" width="120" height="60" as="geometry" />
        </mxCell>
        <mxCell id="qAUXwOdHfvN9G97VkupB-50" value="" style="endArrow=classic;html=1;rounded=0;labelBackgroundColor=#DAD2D8;strokeColor=#A8201A;fontColor=#143642;" edge="1" parent="WIyWlLk6GJQsqaUBKTNV-1" source="qAUXwOdHfvN9G97VkupB-1" target="qAUXwOdHfvN9G97VkupB-46">
          <mxGeometry width="50" height="50" relative="1" as="geometry">
            <mxPoint x="920" y="90" as="sourcePoint" />
            <mxPoint x="970" y="40" as="targetPoint" />
          </mxGeometry>
        </mxCell>
        <mxCell id="qAUXwOdHfvN9G97VkupB-51" value="" style="endArrow=classic;html=1;rounded=0;labelBackgroundColor=#DAD2D8;strokeColor=#A8201A;fontColor=#143642;" edge="1" parent="WIyWlLk6GJQsqaUBKTNV-1" source="qAUXwOdHfvN9G97VkupB-1" target="qAUXwOdHfvN9G97VkupB-47">
          <mxGeometry width="50" height="50" relative="1" as="geometry">
            <mxPoint x="920" y="90" as="sourcePoint" />
            <mxPoint x="970" y="40" as="targetPoint" />
          </mxGeometry>
        </mxCell>
        <mxCell id="qAUXwOdHfvN9G97VkupB-46" value="TIPO" style="ellipse;whiteSpace=wrap;html=1;shadow=0;fillColor=#FAE5C7;strokeColor=#0F8B8D;fontColor=#143642;rounded=0;" vertex="1" parent="WIyWlLk6GJQsqaUBKTNV-1">
          <mxGeometry x="860" y="65" width="90" height="60" as="geometry" />
        </mxCell>
        <mxCell id="qAUXwOdHfvN9G97VkupB-52" value="VALOR&lt;br&gt;VENDA" style="ellipse;whiteSpace=wrap;html=1;shadow=0;fillColor=#FAE5C7;strokeColor=#0F8B8D;fontColor=#143642;rounded=0;" vertex="1" parent="WIyWlLk6GJQsqaUBKTNV-1">
          <mxGeometry x="765" y="65" width="90" height="60" as="geometry" />
        </mxCell>
        <mxCell id="qAUXwOdHfvN9G97VkupB-54" value="" style="endArrow=classic;html=1;rounded=0;exitX=0.25;exitY=1;exitDx=0;exitDy=0;entryX=0.756;entryY=0.044;entryDx=0;entryDy=0;entryPerimeter=0;labelBackgroundColor=#DAD2D8;strokeColor=#A8201A;fontColor=#143642;" edge="1" parent="WIyWlLk6GJQsqaUBKTNV-1" source="qAUXwOdHfvN9G97VkupB-1" target="qAUXwOdHfvN9G97VkupB-52">
          <mxGeometry width="50" height="50" relative="1" as="geometry">
            <mxPoint x="920" y="30" as="sourcePoint" />
            <mxPoint x="970" y="-20" as="targetPoint" />
          </mxGeometry>
        </mxCell>
        <mxCell id="qAUXwOdHfvN9G97VkupB-55" value="" style="endArrow=classic;html=1;rounded=0;exitX=0;exitY=0.5;exitDx=0;exitDy=0;entryX=1;entryY=0.5;entryDx=0;entryDy=0;labelBackgroundColor=#DAD2D8;strokeColor=#A8201A;fontColor=#143642;" edge="1" parent="WIyWlLk6GJQsqaUBKTNV-1" source="qAUXwOdHfvN9G97VkupB-44" target="qAUXwOdHfvN9G97VkupB-49">
          <mxGeometry width="50" height="50" relative="1" as="geometry">
            <mxPoint x="920" y="-90" as="sourcePoint" />
            <mxPoint x="970" y="-140" as="targetPoint" />
          </mxGeometry>
        </mxCell>
        <mxCell id="qAUXwOdHfvN9G97VkupB-56" value="" style="endArrow=classic;html=1;rounded=0;exitX=0.5;exitY=0;exitDx=0;exitDy=0;labelBackgroundColor=#DAD2D8;strokeColor=#A8201A;fontColor=#143642;" edge="1" parent="WIyWlLk6GJQsqaUBKTNV-1" source="qAUXwOdHfvN9G97VkupB-49" target="qAUXwOdHfvN9G97VkupB-57">
          <mxGeometry width="50" height="50" relative="1" as="geometry">
            <mxPoint x="920" y="-210" as="sourcePoint" />
            <mxPoint x="720" y="-250" as="targetPoint" />
          </mxGeometry>
        </mxCell>
        <mxCell id="qAUXwOdHfvN9G97VkupB-61" value="VENDA" style="ellipse;whiteSpace=wrap;html=1;shadow=0;fillColor=#FAE5C7;strokeColor=#0F8B8D;fontColor=#143642;rounded=0;" vertex="1" parent="WIyWlLk6GJQsqaUBKTNV-1">
          <mxGeometry x="775" y="-310" width="90" height="60" as="geometry" />
        </mxCell>
        <mxCell id="qAUXwOdHfvN9G97VkupB-62" value="" style="endArrow=classic;html=1;rounded=0;labelBackgroundColor=#DAD2D8;strokeColor=#A8201A;fontColor=#143642;" edge="1" parent="WIyWlLk6GJQsqaUBKTNV-1" source="qAUXwOdHfvN9G97VkupB-49" target="qAUXwOdHfvN9G97VkupB-61">
          <mxGeometry width="50" height="50" relative="1" as="geometry">
            <mxPoint x="790" y="-90" as="sourcePoint" />
            <mxPoint x="840" y="-140" as="targetPoint" />
          </mxGeometry>
        </mxCell>
        <mxCell id="qAUXwOdHfvN9G97VkupB-65" value="CIDADE" style="ellipse;whiteSpace=wrap;html=1;shadow=0;fillColor=#FAE5C7;strokeColor=#0F8B8D;fontColor=#143642;rounded=0;" vertex="1" parent="WIyWlLk6GJQsqaUBKTNV-1">
          <mxGeometry x="1160" y="-90" width="95" height="60" as="geometry" />
        </mxCell>
        <mxCell id="qAUXwOdHfvN9G97VkupB-66" value="ESTADO" style="ellipse;whiteSpace=wrap;html=1;shadow=0;fillColor=#FAE5C7;strokeColor=#0F8B8D;fontColor=#143642;rounded=0;" vertex="1" parent="WIyWlLk6GJQsqaUBKTNV-1">
          <mxGeometry x="1160" y="-300" width="95" height="60" as="geometry" />
        </mxCell>
        <mxCell id="qAUXwOdHfvN9G97VkupB-67" value="NUMERO" style="ellipse;whiteSpace=wrap;html=1;shadow=0;fillColor=#FAE5C7;strokeColor=#0F8B8D;fontColor=#143642;rounded=0;" vertex="1" parent="WIyWlLk6GJQsqaUBKTNV-1">
          <mxGeometry x="1260" y="-270" width="95" height="60" as="geometry" />
        </mxCell>
        <mxCell id="qAUXwOdHfvN9G97VkupB-68" value="CEP" style="ellipse;whiteSpace=wrap;html=1;shadow=0;fillColor=#FAE5C7;strokeColor=#0F8B8D;fontColor=#143642;rounded=0;" vertex="1" parent="WIyWlLk6GJQsqaUBKTNV-1">
          <mxGeometry x="1270" y="-200" width="95" height="60" as="geometry" />
        </mxCell>
        <mxCell id="qAUXwOdHfvN9G97VkupB-69" value="" style="endArrow=classic;html=1;rounded=0;exitX=1;exitY=1;exitDx=0;exitDy=0;labelBackgroundColor=#DAD2D8;strokeColor=#A8201A;fontColor=#143642;" edge="1" parent="WIyWlLk6GJQsqaUBKTNV-1" source="qAUXwOdHfvN9G97VkupB-3" target="qAUXwOdHfvN9G97VkupB-65">
          <mxGeometry width="50" height="50" relative="1" as="geometry">
            <mxPoint x="1010" y="-90" as="sourcePoint" />
            <mxPoint x="1060" y="-140" as="targetPoint" />
          </mxGeometry>
        </mxCell>
        <mxCell id="qAUXwOdHfvN9G97VkupB-70" value="" style="endArrow=classic;html=1;rounded=0;exitX=1;exitY=0.75;exitDx=0;exitDy=0;labelBackgroundColor=#DAD2D8;strokeColor=#A8201A;fontColor=#143642;" edge="1" parent="WIyWlLk6GJQsqaUBKTNV-1" source="qAUXwOdHfvN9G97VkupB-3" target="qAUXwOdHfvN9G97VkupB-64">
          <mxGeometry width="50" height="50" relative="1" as="geometry">
            <mxPoint x="1010" y="-90" as="sourcePoint" />
            <mxPoint x="1060" y="-140" as="targetPoint" />
          </mxGeometry>
        </mxCell>
        <mxCell id="qAUXwOdHfvN9G97VkupB-71" value="" style="endArrow=classic;html=1;rounded=0;exitX=1;exitY=0.25;exitDx=0;exitDy=0;labelBackgroundColor=#DAD2D8;strokeColor=#A8201A;fontColor=#143642;" edge="1" parent="WIyWlLk6GJQsqaUBKTNV-1" source="qAUXwOdHfvN9G97VkupB-3" target="qAUXwOdHfvN9G97VkupB-63">
          <mxGeometry width="50" height="50" relative="1" as="geometry">
            <mxPoint x="1140" y="-180" as="sourcePoint" />
            <mxPoint x="1060" y="-140" as="targetPoint" />
          </mxGeometry>
        </mxCell>
        <mxCell id="qAUXwOdHfvN9G97VkupB-72" value="COMPLEMENTO" style="ellipse;whiteSpace=wrap;html=1;shadow=0;fillColor=#FAE5C7;strokeColor=#0F8B8D;fontColor=#143642;rounded=0;" vertex="1" parent="WIyWlLk6GJQsqaUBKTNV-1">
          <mxGeometry x="1260" y="-130" width="95" height="60" as="geometry" />
        </mxCell>
        <mxCell id="qAUXwOdHfvN9G97VkupB-73" value="" style="endArrow=classic;html=1;rounded=0;exitX=1;exitY=0;exitDx=0;exitDy=0;entryX=0;entryY=1;entryDx=0;entryDy=0;labelBackgroundColor=#DAD2D8;strokeColor=#A8201A;fontColor=#143642;" edge="1" parent="WIyWlLk6GJQsqaUBKTNV-1" source="qAUXwOdHfvN9G97VkupB-3" target="qAUXwOdHfvN9G97VkupB-66">
          <mxGeometry width="50" height="50" relative="1" as="geometry">
            <mxPoint x="1230" y="-120" as="sourcePoint" />
            <mxPoint x="1280" y="-170" as="targetPoint" />
          </mxGeometry>
        </mxCell>
        <mxCell id="qAUXwOdHfvN9G97VkupB-75" value="" style="endArrow=classic;html=1;rounded=0;exitX=1;exitY=0.5;exitDx=0;exitDy=0;labelBackgroundColor=#DAD2D8;strokeColor=#A8201A;fontColor=#143642;" edge="1" parent="WIyWlLk6GJQsqaUBKTNV-1" source="qAUXwOdHfvN9G97VkupB-3" target="qAUXwOdHfvN9G97VkupB-68">
          <mxGeometry width="50" height="50" relative="1" as="geometry">
            <mxPoint x="1230" y="-120" as="sourcePoint" />
            <mxPoint x="1280" y="-170" as="targetPoint" />
          </mxGeometry>
        </mxCell>
        <mxCell id="qAUXwOdHfvN9G97VkupB-76" value="" style="endArrow=classic;html=1;rounded=0;exitX=0.993;exitY=0.649;exitDx=0;exitDy=0;exitPerimeter=0;entryX=0;entryY=0;entryDx=0;entryDy=0;labelBackgroundColor=#DAD2D8;strokeColor=#A8201A;fontColor=#143642;" edge="1" parent="WIyWlLk6GJQsqaUBKTNV-1" source="qAUXwOdHfvN9G97VkupB-3" target="qAUXwOdHfvN9G97VkupB-72">
          <mxGeometry width="50" height="50" relative="1" as="geometry">
            <mxPoint x="1230" y="-120" as="sourcePoint" />
            <mxPoint x="1280" y="-170" as="targetPoint" />
          </mxGeometry>
        </mxCell>
        <mxCell id="qAUXwOdHfvN9G97VkupB-77" value="" style="endArrow=classic;html=1;rounded=0;exitX=1;exitY=0.25;exitDx=0;exitDy=0;labelBackgroundColor=#DAD2D8;strokeColor=#A8201A;fontColor=#143642;" edge="1" parent="WIyWlLk6GJQsqaUBKTNV-1" source="qAUXwOdHfvN9G97VkupB-3" target="qAUXwOdHfvN9G97VkupB-67">
          <mxGeometry width="50" height="50" relative="1" as="geometry">
            <mxPoint x="1230" y="-120" as="sourcePoint" />
            <mxPoint x="1280" y="-170" as="targetPoint" />
          </mxGeometry>
        </mxCell>
        <mxCell id="qAUXwOdHfvN9G97VkupB-63" value="LOGRADOURO" style="ellipse;whiteSpace=wrap;html=1;shadow=0;fillColor=#FAE5C7;strokeColor=#0F8B8D;fontColor=#143642;rounded=0;" vertex="1" parent="WIyWlLk6GJQsqaUBKTNV-1">
          <mxGeometry x="1160" y="-230" width="95" height="60" as="geometry" />
        </mxCell>
        <mxCell id="qAUXwOdHfvN9G97VkupB-64" value="BAIRRO" style="ellipse;whiteSpace=wrap;html=1;shadow=0;fillColor=#FAE5C7;strokeColor=#0F8B8D;fontColor=#143642;rounded=0;" vertex="1" parent="WIyWlLk6GJQsqaUBKTNV-1">
          <mxGeometry x="1160" y="-160" width="95" height="60" as="geometry" />
        </mxCell>
        <mxCell id="qAUXwOdHfvN9G97VkupB-78" value="" style="endArrow=classic;html=1;rounded=0;exitX=0.25;exitY=0;exitDx=0;exitDy=0;entryX=0.729;entryY=0.943;entryDx=0;entryDy=0;entryPerimeter=0;labelBackgroundColor=#DAD2D8;strokeColor=#A8201A;fontColor=#143642;" edge="1" parent="WIyWlLk6GJQsqaUBKTNV-1" source="qAUXwOdHfvN9G97VkupB-49" target="qAUXwOdHfvN9G97VkupB-79">
          <mxGeometry width="50" height="50" relative="1" as="geometry">
            <mxPoint x="900" y="20" as="sourcePoint" />
            <mxPoint x="640" y="-250" as="targetPoint" />
          </mxGeometry>
        </mxCell>
        <mxCell id="qAUXwOdHfvN9G97VkupB-79" value="TAXAS" style="ellipse;whiteSpace=wrap;html=1;shadow=0;fillColor=#FAE5C7;strokeColor=#0F8B8D;fontColor=#143642;rounded=0;" vertex="1" parent="WIyWlLk6GJQsqaUBKTNV-1">
          <mxGeometry x="570" y="-310" width="90" height="60" as="geometry" />
        </mxCell>
        <mxCell id="qAUXwOdHfvN9G97VkupB-80" value="" style="endArrow=classic;html=1;rounded=0;exitX=0.365;exitY=-0.009;exitDx=0;exitDy=0;exitPerimeter=0;entryX=0.581;entryY=1.011;entryDx=0;entryDy=0;entryPerimeter=0;labelBackgroundColor=#DAD2D8;strokeColor=#A8201A;fontColor=#143642;" edge="1" parent="WIyWlLk6GJQsqaUBKTNV-1" source="qAUXwOdHfvN9G97VkupB-49" target="qAUXwOdHfvN9G97VkupB-81">
          <mxGeometry width="50" height="50" relative="1" as="geometry">
            <mxPoint x="680" y="-270" as="sourcePoint" />
            <mxPoint x="650" y="-340" as="targetPoint" />
          </mxGeometry>
        </mxCell>
        <mxCell id="qAUXwOdHfvN9G97VkupB-81" value="MODALIDADE" style="ellipse;whiteSpace=wrap;html=1;shadow=0;fillColor=#FAE5C7;strokeColor=#0F8B8D;fontColor=#143642;rounded=0;" vertex="1" parent="WIyWlLk6GJQsqaUBKTNV-1">
          <mxGeometry x="605" y="-400" width="90" height="60" as="geometry" />
        </mxCell>
        <mxCell id="qAUXwOdHfvN9G97VkupB-57" value="ALUGUEL" style="ellipse;whiteSpace=wrap;html=1;shadow=0;fillColor=#FAE5C7;strokeColor=#0F8B8D;fontColor=#143642;rounded=0;" vertex="1" parent="WIyWlLk6GJQsqaUBKTNV-1">
          <mxGeometry x="680" y="-310" width="80" height="60" as="geometry" />
        </mxCell>
        <mxCell id="qAUXwOdHfvN9G97VkupB-84" value="DURACAO" style="ellipse;whiteSpace=wrap;html=1;shadow=0;fillColor=#FAE5C7;strokeColor=#0F8B8D;fontColor=#143642;rounded=0;" vertex="1" parent="WIyWlLk6GJQsqaUBKTNV-1">
          <mxGeometry x="750" y="-400" width="90" height="60" as="geometry" />
        </mxCell>
        <mxCell id="qAUXwOdHfvN9G97VkupB-85" value="" style="endArrow=classic;html=1;rounded=0;exitX=0.657;exitY=-0.018;exitDx=0;exitDy=0;exitPerimeter=0;labelBackgroundColor=#DAD2D8;strokeColor=#A8201A;fontColor=#143642;" edge="1" parent="WIyWlLk6GJQsqaUBKTNV-1" source="qAUXwOdHfvN9G97VkupB-49">
          <mxGeometry width="50" height="50" relative="1" as="geometry">
            <mxPoint x="680" y="-270" as="sourcePoint" />
            <mxPoint x="795" y="-340" as="targetPoint" />
          </mxGeometry>
        </mxCell>
        <mxCell id="qAUXwOdHfvN9G97VkupB-86" value="PAGAMENTOS" style="rounded=0;whiteSpace=wrap;html=1;shadow=0;fillColor=#FAE5C7;strokeColor=#0F8B8D;fontColor=#143642;" vertex="1" parent="WIyWlLk6GJQsqaUBKTNV-1">
          <mxGeometry x="1570" y="-220" width="120" height="60" as="geometry" />
        </mxCell>
        <mxCell id="qAUXwOdHfvN9G97VkupB-87" value="CONTA" style="ellipse;whiteSpace=wrap;html=1;shadow=0;fillColor=#FAE5C7;strokeColor=#0F8B8D;fontColor=#143642;rounded=0;" vertex="1" parent="WIyWlLk6GJQsqaUBKTNV-1">
          <mxGeometry x="1460" y="-320" width="90" height="60" as="geometry" />
        </mxCell>
        <mxCell id="qAUXwOdHfvN9G97VkupB-88" value="ENTRADA&lt;br&gt;SAIDA" style="ellipse;whiteSpace=wrap;html=1;shadow=0;fillColor=#FAE5C7;strokeColor=#0F8B8D;fontColor=#143642;rounded=0;" vertex="1" parent="WIyWlLk6GJQsqaUBKTNV-1">
          <mxGeometry x="1585" y="-330" width="90" height="60" as="geometry" />
        </mxCell>
        <mxCell id="qAUXwOdHfvN9G97VkupB-89" value="VALOR" style="ellipse;whiteSpace=wrap;html=1;shadow=0;fillColor=#FAE5C7;strokeColor=#0F8B8D;fontColor=#143642;rounded=0;" vertex="1" parent="WIyWlLk6GJQsqaUBKTNV-1">
          <mxGeometry x="1710" y="-320" width="90" height="60" as="geometry" />
        </mxCell>
        <mxCell id="qAUXwOdHfvN9G97VkupB-90" value="" style="endArrow=classic;html=1;rounded=0;exitX=1;exitY=0;exitDx=0;exitDy=0;entryX=0.5;entryY=1;entryDx=0;entryDy=0;labelBackgroundColor=#DAD2D8;strokeColor=#A8201A;fontColor=#143642;" edge="1" parent="WIyWlLk6GJQsqaUBKTNV-1" source="qAUXwOdHfvN9G97VkupB-86" target="qAUXwOdHfvN9G97VkupB-89">
          <mxGeometry width="50" height="50" relative="1" as="geometry">
            <mxPoint x="1770" y="-250" as="sourcePoint" />
            <mxPoint x="1820" y="-300" as="targetPoint" />
          </mxGeometry>
        </mxCell>
        <mxCell id="qAUXwOdHfvN9G97VkupB-91" value="" style="endArrow=classic;html=1;rounded=0;exitX=0.5;exitY=0;exitDx=0;exitDy=0;entryX=0.5;entryY=1;entryDx=0;entryDy=0;labelBackgroundColor=#DAD2D8;strokeColor=#A8201A;fontColor=#143642;" edge="1" parent="WIyWlLk6GJQsqaUBKTNV-1" source="qAUXwOdHfvN9G97VkupB-86" target="qAUXwOdHfvN9G97VkupB-88">
          <mxGeometry width="50" height="50" relative="1" as="geometry">
            <mxPoint x="1700" y="-200" as="sourcePoint" />
            <mxPoint x="1765" y="-220" as="targetPoint" />
          </mxGeometry>
        </mxCell>
        <mxCell id="qAUXwOdHfvN9G97VkupB-92" value="" style="endArrow=classic;html=1;rounded=0;exitX=0;exitY=0;exitDx=0;exitDy=0;entryX=0.5;entryY=1;entryDx=0;entryDy=0;labelBackgroundColor=#DAD2D8;strokeColor=#A8201A;fontColor=#143642;" edge="1" parent="WIyWlLk6GJQsqaUBKTNV-1" source="qAUXwOdHfvN9G97VkupB-86" target="qAUXwOdHfvN9G97VkupB-87">
          <mxGeometry width="50" height="50" relative="1" as="geometry">
            <mxPoint x="1710" y="-190" as="sourcePoint" />
            <mxPoint x="1775" y="-210" as="targetPoint" />
          </mxGeometry>
        </mxCell>
        <mxCell id="qAUXwOdHfvN9G97VkupB-93" value="PAGA" style="rhombus;whiteSpace=wrap;html=1;shadow=0;fillColor=#FAE5C7;strokeColor=#0F8B8D;fontColor=#143642;rounded=0;" vertex="1" parent="WIyWlLk6GJQsqaUBKTNV-1">
          <mxGeometry x="1235" width="130" height="60" as="geometry" />
        </mxCell>
        <mxCell id="qAUXwOdHfvN9G97VkupB-94" value="" style="endArrow=classic;html=1;rounded=0;exitX=0;exitY=0.5;exitDx=0;exitDy=0;entryX=1;entryY=0.5;entryDx=0;entryDy=0;labelBackgroundColor=#DAD2D8;strokeColor=#A8201A;fontColor=#143642;" edge="1" parent="WIyWlLk6GJQsqaUBKTNV-1" source="qAUXwOdHfvN9G97VkupB-86" target="qAUXwOdHfvN9G97VkupB-93">
          <mxGeometry width="50" height="50" relative="1" as="geometry">
            <mxPoint x="1490" y="190" as="sourcePoint" />
            <mxPoint x="1540" y="140" as="targetPoint" />
          </mxGeometry>
        </mxCell>
        <mxCell id="qAUXwOdHfvN9G97VkupB-95" value="" style="endArrow=classic;html=1;rounded=0;exitX=0;exitY=0.5;exitDx=0;exitDy=0;labelBackgroundColor=#DAD2D8;strokeColor=#A8201A;fontColor=#143642;" edge="1" parent="WIyWlLk6GJQsqaUBKTNV-1" source="qAUXwOdHfvN9G97VkupB-93" target="qAUXwOdHfvN9G97VkupB-2">
          <mxGeometry width="50" height="50" relative="1" as="geometry">
            <mxPoint x="1490" y="190" as="sourcePoint" />
            <mxPoint x="1540" y="140" as="targetPoint" />
          </mxGeometry>
        </mxCell>
        <mxCell id="qAUXwOdHfvN9G97VkupB-96" value="" style="endArrow=classic;html=1;rounded=0;exitX=1;exitY=0;exitDx=0;exitDy=0;entryX=0;entryY=0.5;entryDx=0;entryDy=0;labelBackgroundColor=#DAD2D8;strokeColor=#A8201A;fontColor=#143642;" edge="1" parent="WIyWlLk6GJQsqaUBKTNV-1" source="qAUXwOdHfvN9G97VkupB-49" target="qAUXwOdHfvN9G97VkupB-97">
          <mxGeometry width="50" height="50" relative="1" as="geometry">
            <mxPoint x="1020" y="-120" as="sourcePoint" />
            <mxPoint x="1150" y="-350" as="targetPoint" />
          </mxGeometry>
        </mxCell>
        <mxCell id="qAUXwOdHfvN9G97VkupB-97" value="RECEBE" style="rhombus;whiteSpace=wrap;html=1;shadow=0;fillColor=#FAE5C7;strokeColor=#0F8B8D;fontColor=#143642;rounded=0;" vertex="1" parent="WIyWlLk6GJQsqaUBKTNV-1">
          <mxGeometry x="1135" y="-380" width="130" height="60" as="geometry" />
        </mxCell>
        <mxCell id="qAUXwOdHfvN9G97VkupB-98" value="" style="endArrow=classic;html=1;rounded=0;exitX=1;exitY=0.5;exitDx=0;exitDy=0;entryX=0;entryY=0.5;entryDx=0;entryDy=0;labelBackgroundColor=#DAD2D8;strokeColor=#A8201A;fontColor=#143642;" edge="1" parent="WIyWlLk6GJQsqaUBKTNV-1" source="qAUXwOdHfvN9G97VkupB-97" target="qAUXwOdHfvN9G97VkupB-86">
          <mxGeometry width="50" height="50" relative="1" as="geometry">
            <mxPoint x="785" y="-190" as="sourcePoint" />
            <mxPoint x="1170" y="-330" as="targetPoint" />
          </mxGeometry>
        </mxCell>
        <mxCell id="qAUXwOdHfvN9G97VkupB-99" value="PAGA" style="rhombus;whiteSpace=wrap;html=1;shadow=0;fillColor=#FAE5C7;strokeColor=#0F8B8D;fontColor=#143642;rounded=0;" vertex="1" parent="WIyWlLk6GJQsqaUBKTNV-1">
          <mxGeometry x="565" y="-120" width="130" height="60" as="geometry" />
        </mxCell>
        <mxCell id="qAUXwOdHfvN9G97VkupB-100" value="" style="endArrow=classic;html=1;rounded=0;exitX=0.5;exitY=0;exitDx=0;exitDy=0;entryX=0.5;entryY=1;entryDx=0;entryDy=0;labelBackgroundColor=#DAD2D8;strokeColor=#A8201A;fontColor=#143642;" edge="1" parent="WIyWlLk6GJQsqaUBKTNV-1" source="qAUXwOdHfvN9G97VkupB-0" target="qAUXwOdHfvN9G97VkupB-99">
          <mxGeometry width="50" height="50" relative="1" as="geometry">
            <mxPoint x="1030" y="-160" as="sourcePoint" />
            <mxPoint x="1080" y="-210" as="targetPoint" />
          </mxGeometry>
        </mxCell>
        <mxCell id="qAUXwOdHfvN9G97VkupB-101" value="" style="endArrow=classic;html=1;rounded=0;exitX=0.5;exitY=0;exitDx=0;exitDy=0;entryX=0;entryY=1;entryDx=0;entryDy=0;labelBackgroundColor=#DAD2D8;strokeColor=#A8201A;fontColor=#143642;" edge="1" parent="WIyWlLk6GJQsqaUBKTNV-1" source="qAUXwOdHfvN9G97VkupB-99" target="qAUXwOdHfvN9G97VkupB-49">
          <mxGeometry width="50" height="50" relative="1" as="geometry">
            <mxPoint x="740" y="-90" as="sourcePoint" />
            <mxPoint x="790" y="-140" as="targetPoint" />
          </mxGeometry>
        </mxCell>
      </root>
    </mxGraphModel>
  </diagram>
</mxfile>
